<svg id="Layer_1" data-name="Layer 1" xmlns="http://www.w3.org/2000/svg" viewBox="0 0 538.17 77.51"><defs><style>.cls-1{fill:#263a68;}</style></defs><path class="cls-1" d="M109.51,70.29V6.13h41.68v7.56H118.71v20.2h30.66v7.64H118.71v21.2h32.48v7.56Z"/><path class="cls-1" d="M177.26,67a26.53,26.53,0,0,1-10.55-11.42A38.65,38.65,0,0,1,163,38.17a38.66,38.66,0,0,1,3.69-17.43A26.27,26.27,0,0,1,177.26,9.36a31.8,31.8,0,0,1,16.16-3.95,35.56,35.56,0,0,1,12.19,2,26.39,26.39,0,0,1,9.56,5.87l-3.28,6.92A30.45,30.45,0,0,0,203,14.87a27.18,27.18,0,0,0-9.51-1.64q-10,0-15.43,6.46t-5.41,18.48q0,12,5.41,18.51t15.43,6.51A27.18,27.18,0,0,0,203,61.55a30.45,30.45,0,0,0,8.87-5.37l3.28,6.92A26.39,26.39,0,0,1,205.61,69a35.57,35.57,0,0,1-12.19,2A31.53,31.53,0,0,1,177.26,67Z"/><path class="cls-1" d="M229.54,70.29V6.13h9.38V70.29Z"/><path class="cls-1" d="M263.89,69A29.71,29.71,0,0,1,253.2,63.1l3.37-6.92a31.35,31.35,0,0,0,9.78,5.51,35.82,35.82,0,0,0,11.33,1.68q7.19,0,11.1-2.68a8.68,8.68,0,0,0,3.92-7.6,6.7,6.7,0,0,0-3.64-6.23q-3.65-2.05-11.65-3.87a70.53,70.53,0,0,1-12.56-3.73,18.71,18.71,0,0,1-7.69-5.69,14.55,14.55,0,0,1-2.77-9.15,17,17,0,0,1,2.95-9.92,19.44,19.44,0,0,1,8.42-6.68,31,31,0,0,1,12.65-2.41,38.89,38.89,0,0,1,12.69,2,25.14,25.14,0,0,1,9.79,5.87l-3.28,6.92a33,33,0,0,0-9.15-5.42,27.92,27.92,0,0,0-10-1.77q-6.92,0-10.87,2.87a9.27,9.27,0,0,0-4,8,7.35,7.35,0,0,0,3.46,6.6q3.45,2.22,11.1,4a93.39,93.39,0,0,1,13,3.78,20,20,0,0,1,7.91,5.37,13.07,13.07,0,0,1,3,8.87,16.47,16.47,0,0,1-3,9.74,18.79,18.79,0,0,1-8.46,6.46A34,34,0,0,1,277.59,71,44.5,44.5,0,0,1,263.89,69Z"/><path class="cls-1" d="M396.62,6.13h9.1L383.15,70.29h-7.73L358.13,20.6,340.65,70.29h-7.73L310.44,6.13h9.47L337.1,57,354.85,6.13l6.92.09,17.38,51.05Z"/><path class="cls-1" d="M461.68,70.29l-6.82-15.84H422.37l-6.82,15.84h-9.47L434.66,6.13h7.82l28.58,64.16ZM425.56,47h26.11l-13-30.39Z"/><path class="cls-1" d="M532.12,36.25V66.47a40,40,0,0,1-10.28,3.32A64.36,64.36,0,0,1,509.28,71a34.33,34.33,0,0,1-16.84-3.92,26,26,0,0,1-10.83-11.28q-3.74-7.37-3.73-17.65a38.49,38.49,0,0,1,3.73-17.52A26.11,26.11,0,0,1,492.3,9.32a33,33,0,0,1,16.43-3.91,37.73,37.73,0,0,1,12.56,2A26.5,26.5,0,0,1,531,13.23l-3.37,6.92a31.55,31.55,0,0,0-9-5.37,28.36,28.36,0,0,0-9.83-1.64q-10.36,0-15.88,6.42t-5.5,18.61q0,12.46,5.64,18.88t16.47,6.41a48,48,0,0,0,14-2.09v-18H508.64v-7.1Z"/><path class="cls-1" d="M4.62,9.59a3.7,3.7,0,1,0,3.7-3.71A3.7,3.7,0,0,0,4.62,9.59Z"/><path class="cls-1" d="M22.52,9.59a3.71,3.71,0,1,0,3.7-3.71A3.7,3.7,0,0,0,22.52,9.59Z"/><path class="cls-1" d="M98.14,37.74A31.9,31.9,0,0,1,66.27,69.61H44.14a3.71,3.71,0,0,1-3.71-3.71V37.74a3.71,3.71,0,0,1,7.42,0V62.19H66.27a24.45,24.45,0,1,0,0-48.9H44.14a3.71,3.71,0,0,1,0-7.42H66.27A31.91,31.91,0,0,1,98.14,37.74Z"/></svg>